<?xml version="1.0" encoding="utf-8"?>
<!-- Generator: Adobe Illustrator 23.0.1, SVG Export Plug-In . SVG Version: 6.00 Build 0)  -->
<svg version="1.1" id="Layer_1" xmlns="http://www.w3.org/2000/svg" xmlns:xlink="http://www.w3.org/1999/xlink" x="0px" y="0px"
	 viewBox="0 0 720 720" style="enable-background:new 0 0 720 720;" xml:space="preserve">
<style type="text/css">
	.st0{clip-path:url(#SVGID_2_);}
	.st1{fill:#FCE671;}
	.st2{fill:#FCCAB7;}
</style>
<g>
	<defs>
		<rect id="SVGID_1_" width="720" height="720"/>
	</defs>
	<clipPath id="SVGID_2_">
		<use xlink:href="#SVGID_1_"  style="overflow:visible;"/>
	</clipPath>
	<g class="st0">
		<rect x="-26" y="168" class="st1" width="770" height="580"/>
		<g>
			<path class="st2" d="M851.1,502.4c12.8-4.3,21.6-16,22.1-29.5l0.3-7.9c0.2-5.3-1-10.7-3.3-15.5c-3.6-7.3-7.3-14.5-11-21.7
				c1-0.6,2-1.4,3-2.1c8.3-6.7,39.7-11.5,46.5-4.3c11.1,11.7,29.2,13.4,42.3,4c4.1-2.9,7.2-6.6,9.5-10.8c10.1-9.2,13.5-24,7.9-36.9
				c-16.7-38-43.5-71.5-67.5-101.2c-0.3-0.5-0.5-0.9-0.8-1.3v-511.9H-116.5V188c-2.9-1.3-5.6-2.7-8.2-4.2c-15.5-8.8-35.2-3.4-44,12
				c-2.9,5-4.2,10.5-4.2,16c0,11.2,5.9,22.1,16.3,28.1c13.6,7.8,27.5,12.9,41,17.8c8.5,3.1,16.6,6.1,23.8,9.5
				c16,7.5,32.2,14.8,47.8,21.9c10.6,4.8,21.5,9.7,32.1,14.6l2.7,1.3c14.7,6.8,31.4,14.5,52.9,15.6c18.9,0.9,36-1.4,52.6-3.7
				c12.6-1.7,24.5-3.4,35.8-3.3c6,0,12,0.1,18,0.1c0.4,2.5,1,4.9,2,7.3c9.4,23,35.6,40.2,59.3,54.5c1.3,0.8,2.4,1.5,3.4,2.1
				c22.2,13.6,48.5,28.1,76,32c13.1,1.9,26-4.4,32.5-15.8c1.7-2.9,2.9-6.1,3.6-9.3c15.8,7,31.3,14.4,46.6,22.3
				c16.9,8.9,34,17.7,51.1,26.2c16.7,13.2,37.5,14.3,54.3,2.5c3.5-2.5,6.4-5.5,8.6-8.9c12.3,0.4,24.5,1.5,36.6,3.1
				c14.9,2.1,29.3-6.5,34.6-20.6c1.8-4.9,3.1-10.2,3.4-15.7l22.5,10.3c31.6,14.9,63.4,29.9,95.2,45c20.5,10.9,41.5,21.5,63.6,30.2
				c16.2,6.3,34.5-1.3,41.4-17.2c0.4-0.9,0.7-1.9,1-2.8c1.2-1.1,2.4-2.4,3.4-3.7c0-0.1,0.1-0.1,0.1-0.2c10,16.3,18.9,28.1,26.2,37.2
				C824.2,502.5,838.3,506.7,851.1,502.4"/>
		</g>
	</g>
</g>
</svg>
